<?xml version="1.0" standalone="no"?>
<!DOCTYPE svg PUBLIC "-//W3C//DTD SVG 20010904//EN"
 "http://www.w3.org/TR/2001/REC-SVG-20010904/DTD/svg10.dtd">
<svg version="1.0" xmlns="http://www.w3.org/2000/svg"
 width="2481.000000pt" height="2481.000000pt" viewBox="0 0 2481.000000 2481.000000"
 preserveAspectRatio="xMidYMid meet">
<metadata>
Created by potrace 1.14, written by Peter Selinger 2001-2017
</metadata>
<g transform="translate(0.000000,2481.000000) scale(0.100000,-0.100000)"
fill="#000000" stroke="none">
<path d="M12092 13832 c0 -4012 3 -5009 13 -5057 58 -271 268 -459 553 -491
l52 -6 0 5003 c-1 5176 0 5009 -34 5134 -8 31 -55 117 -87 160 -109 148 -265
233 -456 250 l-41 3 0 -4996z"/>
<path d="M13206 15613 c-3 -4 -6 -1773 -6 -3933 l0 -3927 -795 0 c-438 0 -798
3 -800 7 -3 5 -5 1652 -5 3662 0 3981 4 3689 -55 3822 -71 161 -231 296 -400
340 -53 13 -121 21 -150 17 -8 -1 -10 -212 -9 -668 5 -1184 15 -4098 19 -5173
2 -575 5 -1294 6 -1599 2 -592 4 -619 53 -726 32 -69 96 -147 159 -192 63 -46
117 -77 117 -67 0 3 6 1 14 -5 14 -12 33 -17 91 -27 22 -3 2258 -8 2356 -5 15
1 16 332 14 3979 -1 2187 -4 3984 -7 3992 -2 8 -8 31 -12 50 -4 19 -22 64 -39
100 -91 192 -273 325 -476 346 -25 3 -51 7 -58 9 -6 2 -14 1 -17 -2z"/>
<path d="M9890 9612 c0 -3011 0 -3080 19 -3154 42 -162 125 -278 265 -369 60
-40 142 -74 204 -87 21 -4 1049 -7 2285 -7 l2249 0 -1 3075 c0 1691 -3 3086
-6 3100 -3 14 -7 37 -10 52 -3 15 -17 55 -32 90 -58 138 -176 259 -313 320
-75 34 -108 42 -210 52 l-45 5 0 -3040 c0 -1671 -2 -3039 -5 -3040 -7 -1
-3750 -1 -3770 0 -13 1 -15 315 -16 2764 0 1519 -3 2778 -6 2797 -32 201 -163
372 -352 461 -35 16 -74 32 -87 34 -13 3 -35 7 -49 10 -14 2 -46 7 -72 11
l-48 6 0 -3080z"/>
</g>
</svg>
